  <svg xmlns="http://www.w3.org/2000/svg" width="1572.498" height="1292.979" viewBox="0 0 1572.498 1292.979">
				<path id="Path_1" data-name="Path 1" d="M245.553,667.92c6.734-37.646,51.271-59.476,87.535-65.657s74.911-6.3,106.993-23.878c73.528-40.29,83.812-155.172,163.726-181.519,39.168-12.912,82.571,1,123.294-6.033,47.666-8.228,91.343-40.5,113.3-82.5,105.116-201.1,223.616-285.707,483.521-305.47,32.435-2.467,66.571-.1,94.964,15.368,37.351,20.342,298.483,64.362,308.98,104.757,26.747,102.916,67.434,258.987,65.851,365.134-1.28,85.8-42.987,179.578-32.691,264.8,14.418,119.338,76.021,278.081,51.2,395.786-12.771,60.555-343.045,24.537-386.255,69.829s-120.263,69.68-180.187,49.253c-89.842,43.369-203.972,34.259-285.358-22.778-31.458-22.045-59.382-51.035-89.021-75.941s-60.988-45.73-99.3-51.443c-29.939-4.466-60.354,1.3-90.6,2.764-51.935,2.518-96.289-15.245-112.231-66.568-6.683-21.516-8.287-44.164-12.234-66.311-8.411-47.184-32.6-84.253-84.739-87.784-42.642-2.89-91.641,13.656-127.828-16.517-32.319-26.947-27.8-79.015-55.964-110.067" transform="translate(-245.553 -2.02)" fill="#9cffe4" opacity="0.324"/>
			  </svg>